<?xml version="1.0" standalone="no"?><!DOCTYPE svg PUBLIC "-//W3C//DTD SVG 1.1//EN" "http://www.w3.org/Graphics/SVG/1.1/DTD/svg11.dtd"><svg t="1758005249470" class="icon" viewBox="0 0 1024 1024" version="1.1" xmlns="http://www.w3.org/2000/svg" p-id="9377" xmlns:xlink="http://www.w3.org/1999/xlink" width="200" height="200"><path d="M953.813333 517.973333H70.186667L4.010667 429.696 92.416 341.333333h839.168l88.405333 88.405334-66.176 88.192z" fill="#234BB9" p-id="9378"></path><path d="M887.424 1019.989333H136.405333a44.202667 44.202667 0 0 1-44.202666-44.202666V48.213333c0-24.405333 19.797333-44.202667 44.202666-44.202666H666.453333l264.96 264.96V975.786667a43.946667 43.946667 0 0 1-43.946666 44.202666z" fill="#E6E6E6" p-id="9379"></path><path d="M666.581333 4.010667v220.8c0 24.405333 19.797333 44.202667 44.202667 44.202666h220.8L666.581333 4.010667z" fill="#B3B3B3" p-id="9380"></path><path d="M979.456 896H44.544C19.968 896 0 872.618667 0 843.776V426.666667h1024v417.365333c0 28.8-19.968 51.968-44.544 51.968z" fill="#3A64D8" p-id="9381"></path><path d="M230.741333 809.088H85.333333v-244.821333h145.408v53.077333h-79.36v38.4H224.853333v53.12H151.466667v46.293333h79.36v53.930667z m220.842667-166.869333c0 27.392-8.192 48.554667-24.32 63.530666-16.085333 14.933333-38.954667 22.314667-68.864 22.314667h-18.645333v81.322667H273.664v-245.12H358.4c30.762667 0 54.186667 6.784 69.717333 20.352 15.530667 13.525333 23.466667 32.725333 23.466667 57.6zM340.053333 674.133333h12.117334c9.898667 0 17.792-2.858667 23.722666-8.490666 5.930667-5.632 8.746667-13.269333 8.746667-23.168 0-16.64-9.045333-24.832-27.392-24.832H340.053333V674.133333z m358.613334-109.866666v147.413333c0 31.914667-9.045333 56.746667-27.136 74.538667-18.048 17.493333-44.330667 26.24-78.506667 26.24-33.28 0-59.008-8.448-77.056-25.685334-18.090667-16.938667-26.88-41.514667-26.88-73.685333v-148.821333h66.389333v143.744c0 17.194667 3.413333 29.909333 9.898667 37.845333 6.485333 7.893333 16.085333 11.52 28.501333 11.52 13.568 0 23.466667-3.925333 29.354667-11.52 6.229333-7.68 9.045333-20.352 9.045333-38.144v-143.445333h66.389334z m51.370666 0h85.290667c33.28 0 57.898667 4.821333 74.24 14.933333 16.128 9.898667 24.32 25.173333 24.32 46.08 0 13.824-3.413333 25.386667-10.453333 35.285333a46.506667 46.506667 0 0 1-27.989334 18.645334v1.706666c15.274667 3.925333 26.282667 10.666667 33.066667 20.053334 6.784 9.301333 10.154667 21.418667 10.154667 36.394666 0 22.314667-8.448 39.808-25.130667 52.522667-16.64 12.714667-39.552 19.2-68.352 19.2h-95.402667l0.256-244.821333z m66.346667 94.037333h20.053333c9.6 0 16.938667-1.962667 22.016-5.930667a20.778667 20.778667 0 0 0 7.936-17.493333c0-13.866667-10.453333-20.650667-31.061333-20.650667h-18.645333v44.074667h-0.298667z m0 48.298667v51.370666h23.168c20.608 0 31.061333-8.746667 31.061333-26.24 0-8.192-2.816-14.421333-8.192-18.645333-5.632-4.266667-13.568-6.485333-23.978666-6.485333h-22.058667z" fill="#FFFFFF" p-id="9382"></path></svg>